Coordinates
version=1
nRows=9
nColumns=63
inDegrees=yes

Units are S.I. units (second, meters, Newtons, ...)
If the header above contains a line with 'inDegrees', this indicates whether rotational values are in degrees (yes) or radians (no).

endheader
time	pelvis_tilt	pelvis_list	pelvis_rotation	pelvis_tx	pelvis_ty	pelvis_tz	hip_flexion_r	hip_adduction_r	hip_rotation_r	knee_angle_r	knee_angle_r_beta	ankle_angle_r	subtalar_angle_r	mtp_angle_r	hip_flexion_l	hip_adduction_l	hip_rotation_l	knee_angle_l	knee_angle_l_beta	ankle_angle_l	subtalar_angle_l	mtp_angle_l	L5_S1_Flex_Ext	L5_S1_Lat_Bending	L5_S1_axial_rotation	L4_L5_Flex_Ext	L4_L5_Lat_Bending	L4_L5_axial_rotation	L3_L4_Flex_Ext	L3_L4_Lat_Bending	L3_L4_axial_rotation	L2_L3_Flex_Ext	L2_L3_Lat_Bending	L2_L3_axial_rotation	L1_L2_Flex_Ext	L1_L2_Lat_Bending	L1_L2_axial_rotation	L1_T12_Flex_Ext	L1_T12_Lat_Bending	L1_T12_axial_rotation	Abs_r3	Abs_r2	Abs_r1	Abs_t1	Abs_t2	neck_flexion	neck_bending	neck_rotation	arm_flex_r	arm_add_r	arm_rot_r	elbow_flex_r	pro_sup_r	wrist_flex_r	wrist_dev_r	arm_flex_l	arm_add_l	arm_rot_l	elbow_flex_l	pro_sup_l	wrist_flex_l	wrist_dev_l
9.271186	5.209019	1.891649	99.930017	0.248869	0.704720	0.631991	0.703579	3.947859	-16.425081	11.943698	0.208457	28.773309	3.333722	0.000000	-2.018831	-5.678162	4.742103	2.927511	0.051095	31.517702	4.278063	0.000000	0.120822	0.663937	-1.425240	0.224378	0.883036	-1.514317	0.198498	1.614295	-1.514317	0.138087	1.614295	-1.247085	0.112195	1.353899	-1.158007	0.069037	1.028438	-1.068930	0.863016	7.510583	-7.926757	0.000000	0.000000	25.061575	6.448044	-0.381449	-2.617941	-25.458661	-14.446933	89.985184	85.045594	-9.994557	18.186053	-12.338812	-13.918704	-36.209553	95.919122	81.215756	-3.091282	-3.366610
9.288136	5.271806	1.765358	99.941821	0.248354	0.704607	0.633021	0.973500	3.918393	-16.454997	12.099534	0.211177	28.647475	3.316378	0.000000	-1.781526	-5.671677	4.674508	2.978508	0.051985	31.522993	4.370086	0.000000	0.125140	0.683706	-1.419714	0.232397	0.909329	-1.508446	0.205592	1.662362	-1.508446	0.143022	1.662362	-1.242250	0.116205	1.394213	-1.153518	0.071505	1.059060	-1.064785	0.893861	7.734216	-7.896023	0.000000	0.000000	25.075036	6.110807	-0.197222	-2.464928	-25.599622	-14.439495	90.012371	84.987509	-9.975127	17.605528	-11.260711	-13.549308	-36.561834	95.083676	79.044115	-2.749708	-5.462881
9.305085	5.325658	1.646542	99.956220	0.247860	0.704511	0.634024	1.236836	3.889443	-16.398753	12.259079	0.213961	28.481397	3.175720	0.000000	-1.548256	-5.661489	4.584929	3.045166	0.053148	31.533332	4.495718	0.000000	0.129059	0.701242	-1.413994	0.239675	0.932651	-1.502368	0.212030	1.704999	-1.502368	0.147501	1.704999	-1.237245	0.119844	1.429972	-1.148870	0.073744	1.086223	-1.060495	0.921853	7.932586	-7.864209	0.000000	0.000000	25.062583	5.763232	-0.074742	-2.368447	-25.711586	-14.452794	90.078289	84.992949	-9.952589	17.019066	-10.153044	-13.239381	-36.792099	94.292322	76.523650	-2.537741	-7.343831
9.322034	5.369678	1.532164	99.998193	0.247372	0.704417	0.634971	1.492375	3.855998	-16.331117	12.422134	0.216807	28.292193	2.972843	0.000000	-1.311478	-5.642239	4.676508	3.132279	0.054669	31.512793	4.412002	0.000000	0.133630	0.715762	-1.413448	0.248164	0.951964	-1.501789	0.219540	1.740305	-1.501789	0.152725	1.740305	-1.236767	0.124088	1.459583	-1.148427	0.076356	1.108716	-1.060086	0.954503	8.096848	-7.861174	0.000000	0.000000	25.029746	5.430740	-0.013919	-2.327947	-25.786467	-14.492439	90.190188	85.111969	-9.910303	16.511545	-9.070387	-12.990964	-36.911431	93.592216	73.771846	-2.465922	-8.957876
9.338983	5.395466	1.429241	100.029216	0.246957	0.704337	0.635827	1.726762	3.815720	-16.183727	12.578135	0.219530	28.079175	2.670187	0.000000	-1.096129	-5.610808	4.752936	3.226158	0.056307	31.485642	4.336182	0.000000	0.137585	0.726052	-1.411639	0.255510	0.965650	-1.499866	0.226039	1.765324	-1.499866	0.157246	1.765324	-1.235184	0.127762	1.480566	-1.146957	0.078616	1.124655	-1.058729	0.982758	8.213250	-7.851113	0.000000	0.000000	24.986739	5.122963	-0.014900	-2.335135	-25.824966	-14.544464	90.332220	85.317988	-9.847718	16.075577	-8.052466	-12.797186	-36.939959	93.006971	70.898776	-2.536501	-10.289624
9.355932	5.407615	1.341427	100.071116	0.246602	0.704274	0.636584	1.932279	3.776858	-15.981308	12.716527	0.221945	27.851259	2.272752	0.000000	-0.906408	-5.575880	4.821050	3.314435	0.057848	31.453828	4.293350	0.000000	0.140506	0.732045	-1.412630	0.260934	0.973619	-1.500920	0.230838	1.779893	-1.500920	0.160585	1.779893	-1.236052	0.130474	1.492786	-1.147762	0.080285	1.133937	-1.059473	1.003622	8.281036	-7.856626	0.000000	0.000000	24.943111	4.861659	-0.081516	-2.376244	-25.819486	-14.610751	90.482830	85.581490	-9.762357	15.705110	-7.132868	-12.648847	-36.895126	92.557667	67.995395	-2.753384	-11.319697
9.372881	5.412376	1.265464	100.139202	0.246296	0.704210	0.637217	2.111948	3.745216	-15.765644	12.837116	0.224050	27.633434	1.820653	0.000000	-0.730177	-5.545070	4.912172	3.412158	0.059553	31.429143	4.259667	0.000000	0.143274	0.734327	-1.420540	0.266074	0.976655	-1.509324	0.235385	1.785443	-1.509324	0.163748	1.785443	-1.242972	0.133044	1.497440	-1.154189	0.081867	1.137473	-1.065405	1.023391	8.306858	-7.900617	0.000000	0.000000	24.906498	4.656504	-0.185181	-2.440171	-25.776410	-14.682824	90.641475	85.908053	-9.644400	15.455061	-6.357564	-12.543044	-36.792294	92.261995	65.226454	-3.159685	-12.073163
9.389831	5.411516	1.201247	100.207759	0.246052	0.704145	0.637726	2.268311	3.718392	-15.532487	12.944013	0.225916	27.434998	1.353578	0.000000	-0.584480	-5.516562	5.029064	3.490701	0.060924	31.396553	4.202553	0.000000	0.145888	0.733724	-1.429479	0.270928	0.975854	-1.518822	0.239679	1.783978	-1.518822	0.166735	1.783978	-1.250795	0.135471	1.496211	-1.161452	0.083360	1.136539	-1.072110	1.042061	8.300038	-7.950336	0.000000	0.000000	24.871522	4.472704	-0.315548	-2.520886	-25.728246	-14.741158	90.803534	86.280684	-9.520460	15.324138	-5.744928	-12.486949	-36.630504	92.109929	62.709091	-3.731305	-12.575151
9.406780	5.407731	1.147314	100.291074	0.245846	0.704069	0.638124	2.404971	3.694966	-15.325208	13.044290	0.227666	27.276654	0.923833	0.000000	-0.454522	-5.493299	5.160243	3.571998	0.062343	31.378170	4.155881	0.000000	0.147865	0.730197	-1.442504	0.274600	0.971162	-1.532661	0.242927	1.775401	-1.532661	0.168995	1.775401	-1.262191	0.137307	1.489018	-1.172035	0.084490	1.131075	-1.081878	1.056183	8.260136	-8.022776	0.000000	0.000000	24.858111	4.329855	-0.477724	-2.602253	-25.690602	-14.766825	90.950820	86.679011	-9.404856	15.283791	-5.316379	-12.473716	-36.437466	92.104493	60.486140	-4.399910	-12.854315
